<svg viewBox="0 0 952.5 400" xmlns="http://www.w3.org/2000/svg"><g><g><g><g><g><line x1="50" y1="378" x2="45" y2="378" style="visibility: inherit;" fill="rgb(0, 0, 0)" stroke="rgb(204, 204, 204)" stroke-width="1px"></line><line x1="50" y1="336" x2="45" y2="336" style="visibility: inherit;" fill="rgb(0, 0, 0)" stroke="rgb(204, 204, 204)" stroke-width="1px"></line><line x1="50" y1="294" x2="45" y2="294" style="visibility: inherit;" fill="rgb(0, 0, 0)" stroke="rgb(204, 204, 204)" stroke-width="1px"></line><line x1="50" y1="252" x2="45" y2="252" style="visibility: inherit;" fill="rgb(0, 0, 0)" stroke="rgb(204, 204, 204)" stroke-width="1px"></line><line x1="50" y1="210" x2="45" y2="210" style="visibility: inherit;" fill="rgb(0, 0, 0)" stroke="rgb(204, 204, 204)" stroke-width="1px"></line><line x1="50" y1="168" x2="45" y2="168" style="visibility: inherit;" fill="rgb(0, 0, 0)" stroke="rgb(204, 204, 204)" stroke-width="1px"></line><line x1="50" y1="126" x2="45" y2="126" style="visibility: inherit;" fill="rgb(0, 0, 0)" stroke="rgb(204, 204, 204)" stroke-width="1px"></line><line x1="50" y1="84.00000000000006" x2="45" y2="84.00000000000006" style="visibility: inherit;" fill="rgb(0, 0, 0)" stroke="rgb(204, 204, 204)" stroke-width="1px"></line><line x1="50" y1="42" x2="45" y2="42" style="visibility: inherit;" fill="rgb(0, 0, 0)" stroke="rgb(204, 204, 204)" stroke-width="1px"></line><line x1="50" y1="0" x2="45" y2="0" style="visibility: inherit;" fill="rgb(0, 0, 0)" stroke="rgb(204, 204, 204)" stroke-width="1px"></line></g><g transform="translate(40, 0)"><text x="0" y="378" dx="0em" dy="0.3em" style="text-anchor: end; visibility: hidden; font-family: &quot;Helvetica Neue&quot;, sans-serif; font-size: 12px; font-weight: 200;" fill="rgb(50, 49, 63)" stroke="none" stroke-width="1px">-0.1</text><text x="0" y="336" dx="0em" dy="0.3em" style="text-anchor: end; visibility: inherit; font-family: &quot;Helvetica Neue&quot;, sans-serif; font-size: 12px; font-weight: 200;" fill="rgb(50, 49, 63)" stroke="none" stroke-width="1px">0</text><text x="0" y="294" dx="0em" dy="0.3em" style="text-anchor: end; visibility: inherit; font-family: &quot;Helvetica Neue&quot;, sans-serif; font-size: 12px; font-weight: 200;" fill="rgb(50, 49, 63)" stroke="none" stroke-width="1px">0.1</text><text x="0" y="252" dx="0em" dy="0.3em" style="text-anchor: end; visibility: inherit; font-family: &quot;Helvetica Neue&quot;, sans-serif; font-size: 12px; font-weight: 200;" fill="rgb(50, 49, 63)" stroke="none" stroke-width="1px">0.2</text><text x="0" y="210" dx="0em" dy="0.3em" style="text-anchor: end; visibility: inherit; font-family: &quot;Helvetica Neue&quot;, sans-serif; font-size: 12px; font-weight: 200;" fill="rgb(50, 49, 63)" stroke="none" stroke-width="1px">0.3</text><text x="0" y="168" dx="0em" dy="0.3em" style="text-anchor: end; visibility: inherit; font-family: &quot;Helvetica Neue&quot;, sans-serif; font-size: 12px; font-weight: 200;" fill="rgb(50, 49, 63)" stroke="none" stroke-width="1px">0.4</text><text x="0" y="126" dx="0em" dy="0.3em" style="text-anchor: end; visibility: inherit; font-family: &quot;Helvetica Neue&quot;, sans-serif; font-size: 12px; font-weight: 200;" fill="rgb(50, 49, 63)" stroke="none" stroke-width="1px">0.5</text><text x="0" y="84.00000000000006" dx="0em" dy="0.3em" style="text-anchor: end; visibility: inherit; font-family: &quot;Helvetica Neue&quot;, sans-serif; font-size: 12px; font-weight: 200;" fill="rgb(50, 49, 63)" stroke="none" stroke-width="1px">0.6</text><text x="0" y="42" dx="0em" dy="0.3em" style="text-anchor: end; visibility: inherit; font-family: &quot;Helvetica Neue&quot;, sans-serif; font-size: 12px; font-weight: 200;" fill="rgb(50, 49, 63)" stroke="none" stroke-width="1px">0.7</text><text x="0" y="0" dx="0em" dy="0.3em" style="text-anchor: end; visibility: hidden; font-family: &quot;Helvetica Neue&quot;, sans-serif; font-size: 12px; font-weight: 200;" fill="rgb(50, 49, 63)" stroke="none" stroke-width="1px">0.8</text></g><line x1="50" y1="0" x2="50" y2="378" fill="rgb(0, 0, 0)" stroke="rgb(204, 204, 204)" stroke-width="1px"></line></g></g><g transform="translate(50, 0)" clip-path="url(#clip_0)"><clipPath id="clip_0"><rect width="902" height="378"></rect></clipPath><g><g><g><line x1="0" y1="0" x2="0" y2="378" fill="rgb(0, 0, 0)" stroke="rgb(60, 60, 60)" stroke-width="1px" opacity="0.25"></line><line x1="75.20833333333333" y1="0" x2="75.20833333333333" y2="378" fill="rgb(0, 0, 0)" stroke="rgb(60, 60, 60)" stroke-width="1px" opacity="0.25"></line><line x1="150.41666666666666" y1="0" x2="150.41666666666666" y2="378" fill="rgb(0, 0, 0)" stroke="rgb(60, 60, 60)" stroke-width="1px" opacity="0.25"></line><line x1="225.625" y1="0" x2="225.625" y2="378" fill="rgb(0, 0, 0)" stroke="rgb(60, 60, 60)" stroke-width="1px" opacity="0.25"></line><line x1="300.8333333333333" y1="0" x2="300.8333333333333" y2="378" fill="rgb(0, 0, 0)" stroke="rgb(60, 60, 60)" stroke-width="1px" opacity="0.25"></line><line x1="376.0416666666667" y1="0" x2="376.0416666666667" y2="378" fill="rgb(0, 0, 0)" stroke="rgb(60, 60, 60)" stroke-width="1px" opacity="0.25"></line><line x1="451.25" y1="0" x2="451.25" y2="378" fill="rgb(0, 0, 0)" stroke="rgb(60, 60, 60)" stroke-width="1px" opacity="0.25"></line><line x1="526.4583333333334" y1="0" x2="526.4583333333334" y2="378" fill="rgb(0, 0, 0)" stroke="rgb(60, 60, 60)" stroke-width="1px" opacity="0.25"></line><line x1="601.6666666666666" y1="0" x2="601.6666666666666" y2="378" fill="rgb(0, 0, 0)" stroke="rgb(60, 60, 60)" stroke-width="1px" opacity="0.25"></line><line x1="676.875" y1="0" x2="676.875" y2="378" fill="rgb(0, 0, 0)" stroke="rgb(60, 60, 60)" stroke-width="1px" opacity="0.25"></line><line x1="752.0833333333334" y1="0" x2="752.0833333333334" y2="378" fill="rgb(0, 0, 0)" stroke="rgb(60, 60, 60)" stroke-width="1px" opacity="0.25"></line><line x1="827.2916666666666" y1="0" x2="827.2916666666666" y2="378" fill="rgb(0, 0, 0)" stroke="rgb(60, 60, 60)" stroke-width="1px" opacity="0.25"></line><line x1="902.5" y1="0" x2="902.5" y2="378" fill="rgb(0, 0, 0)" stroke="rgb(60, 60, 60)" stroke-width="1px" opacity="0.25"></line></g><g><line x1="0" y1="378" x2="902.5" y2="378" fill="rgb(0, 0, 0)" stroke="rgb(60, 60, 60)" stroke-width="1px" opacity="0.25"></line><line x1="0" y1="336" x2="902.5" y2="336" fill="rgb(0, 0, 0)" stroke="rgb(60, 60, 60)" stroke-width="1px" opacity="0.25"></line><line x1="0" y1="294" x2="902.5" y2="294" fill="rgb(0, 0, 0)" stroke="rgb(60, 60, 60)" stroke-width="1px" opacity="0.25"></line><line x1="0" y1="252" x2="902.5" y2="252" fill="rgb(0, 0, 0)" stroke="rgb(60, 60, 60)" stroke-width="1px" opacity="0.25"></line><line x1="0" y1="210" x2="902.5" y2="210" fill="rgb(0, 0, 0)" stroke="rgb(60, 60, 60)" stroke-width="1px" opacity="0.25"></line><line x1="0" y1="168" x2="902.5" y2="168" fill="rgb(0, 0, 0)" stroke="rgb(60, 60, 60)" stroke-width="1px" opacity="0.25"></line><line x1="0" y1="126" x2="902.5" y2="126" fill="rgb(0, 0, 0)" stroke="rgb(60, 60, 60)" stroke-width="1px" opacity="0.25"></line><line x1="0" y1="84.00000000000006" x2="902.5" y2="84.00000000000006" fill="rgb(0, 0, 0)" stroke="rgb(60, 60, 60)" stroke-width="1px" opacity="0.25"></line><line x1="0" y1="42" x2="902.5" y2="42" fill="rgb(0, 0, 0)" stroke="rgb(60, 60, 60)" stroke-width="1px" opacity="0.25"></line><line x1="0" y1="0" x2="902.5" y2="0" fill="rgb(0, 0, 0)" stroke="rgb(60, 60, 60)" stroke-width="1px" opacity="0.25"></line></g></g></g><g><g><line x1="0" y1="336" x2="902.5" y2="336" fill="rgb(0, 0, 0)" stroke="rgb(153, 153, 153)" stroke-width="1.5px"></line></g></g><g><g><line x1="75.20833333333333" y1="0" x2="75.20833333333333" y2="378" fill="rgb(0, 0, 0)" stroke="rgb(153, 153, 153)" stroke-width="1.5px"></line></g></g><g><g><g><g><g><path stroke="rgb(0, 119, 187)" stroke-width="2px" d="M75.20833333333333,81.88822603225708L82.72916666666666,202.86866104602817L90.25,240.10713225603106L97.77083333333334,269.011557161808L105.29166666666667,289.2435268163681" style="fill: none;" fill="none"></path></g><g><path stroke="rgb(0, 153, 136)" stroke-width="2px" d="M75.20833333333333,115.65046405792236L82.72916666666666,244.69664400815964L90.25,271.4572927951813L97.77083333333334,286.7439588010311L105.29166666666667,302.1459593474865L112.8125,314.19633163511753L120.33333333333333,317.4270818978548L127.85416666666666,329.8499370776117L135.375,331.3250653669238L142.89583333333331,334.4496369631961L150.41666666666666,319.9356840401888L157.9375,335.67258046846837L165.45833333333331,335.79286730638705L172.97916666666669,322.47985003888607L180.5,335.8704168875702L188.02083333333334,335.9686781759374L195.54166666666669,332.9208868313581L203.0625,335.9533433103352L210.58333333333334,335.9795908806118L218.10416666666666,331.047983340919L225.625,335.91116612713085L233.14583333333334,335.9860805030039L240.66666666666666,335.99388805274066L248.18750000000003,335.9984848045233L255.70833333333331,335.99964756786085L263.2291666666667,335.99986040405986L270.75,335.99993198739304L278.27083333333337,312.5070281177759L285.79166666666663,335.94642185687553L293.3125,335.9979228860866L300.8333333333333,335.99917016966265L308.3541666666667,335.99957640444563L315.875,335.999800833902L323.3958333333333,335.9998739990764L330.91666666666663,335.99993861628354L338.4375,335.99995053417376L345.95833333333337,335.9999520123262L353.4791666666667,335.99995335626966L361,335.9999498011661L368.5208333333333,335.9999540022557L376.0416666666667,335.99995367003976L383.5625,335.9999540226652L391.08333333333337,335.9999539068393L398.60416666666663,335.99995377434334L406.125,335.99995404938346L413.6458333333333,335.99995403271623L421.1666666666667,335.99995389102565L428.6875,335.99995404105135L436.2083333333333,335.9999537220677L443.72916666666663,335.9999538993608" style="fill: none;" fill="none"></path></g><g><path stroke="rgb(238, 51, 119)" stroke-width="2px" d="M75.20833333333333,112.39990568161016L82.72916666666666,225.11869883537292L90.25,261.1046025753021L97.77083333333334,287.68646201491356L105.29166666666667,303.51266598701477L112.8125,308.3452605307102L120.33333333333333,318.30807669460773L127.85416666666666,327.62575230002403L135.375,328.9266783222556L142.89583333333331,332.92919947206974L150.41666666666666,332.0208132304251L157.9375,335.78424443048425L165.45833333333331,330.2423266544938L172.97916666666669,335.93294981424697L180.5,320.98823180794716L188.02083333333334,335.6812859759666L195.54166666666669,335.9213806085754L203.0625,335.9820867092785L210.58333333333334,332.80882000364363L218.10416666666666,335.96793192156474" style="fill: none;" fill="none"></path></g><g><path stroke="rgb(255, 112, 67)" stroke-width="2px" d="M75.20833333333333,87.54076695442205Z" style="fill: none;" fill="none"></path></g><g><path stroke="rgb(51, 187, 238)" stroke-width="2px" d="M75.20833333333333,109.41145277023321L82.72916666666666,230.83100831508636L90.25,271.759152173996L97.77083333333334,292.68139547109604L105.29166666666667,307.4484129846096L112.8125,312.51615768671036L120.33333333333333,323.83391531556845L127.85416666666666,331.0773156993091L135.375,326.46251378953457L142.89583333333331,330.85754108056426L150.41666666666666,331.7653922215104L157.9375,334.40663127601147L165.45833333333331,332.75650452263653L172.97916666666669,335.7990047559142L180.5,335.95774032882764" style="fill: none;" fill="none"></path></g><g><path stroke="rgb(204, 51, 17)" stroke-width="2px" d="M75.20833333333333,69.58837008476257L82.72916666666666,203.7359747886658L90.25,261.00746458768845L97.77083333333334,278.83517360687256L105.29166666666667,299.29395711421967L112.8125,316.57399682700634L120.33333333333333,317.5403886884451L127.85416666666666,325.9100426584482L135.375,326.94599448144436L142.89583333333331,318.6511278748512" style="fill: none;" fill="none"></path></g><g><path stroke="rgb(187, 187, 187)" stroke-width="2px" d="M75.20833333333333,85.85445499420166L82.72916666666666,209.91585588455203L90.25,257.1770260334015L97.77083333333334,289.6234514415264L105.29166666666667,300.1963903605938L112.8125,309.89890663325787L120.33333333333333,314.36498223245144L127.85416666666666,324.5994230210781L135.375,322.8716736137867L142.89583333333331,329.70672058314085L150.41666666666666,326.89286148548126L157.9375,332.55632151290774L165.45833333333331,333.0537596102804L172.97916666666669,333.1042896620929L180.5,327.5923171117902L188.02083333333334,335.2220448469743L195.54166666666669,335.9054183906992L203.0625,335.9722687693429L210.58333333333334,327.8959804996848L218.10416666666666,335.94096401555L225.625,335.9786462447082L233.14583333333334,335.99164761116845L240.66666666666666,335.9970665861929L248.18750000000003,320.8663806170225L255.70833333333331,335.96747045282973L263.2291666666667,335.9931558753815L270.75,335.9962055179458L278.27083333333337,335.99835592920135L285.79166666666663,321.982478633523L293.3125,335.9939600196194L300.8333333333333,335.99659974690076L308.3541666666667,335.99841685873434L315.875,335.9993990723033L323.3958333333333,335.99977703421337L330.91666666666663,335.9998938540966L338.4375,335.99994059040233L345.95833333333337,323.0702522993088L353.4791666666667,335.9946706746414L361,335.9983646771034L368.5208333333333,335.9994710669239L376.0416666666667,335.99976876713845L383.5625,335.9998919504128L391.08333333333337,335.99993294286384L398.60416666666663,335.9999397556695L406.125,326.03899097442627L413.6458333333333,335.99889325354616L421.1666666666667,335.999766831869L428.6875,335.99941631131605L436.2083333333333,335.99979920741L443.72916666666663,335.9998935876363L451.25,335.99992029823886L458.7708333333333,335.9999453236188L466.2916666666667,335.99995222240756L473.8125,335.9999532157459L481.3333333333333,335.99995394305654L488.85416666666663,335.9999538234914L496.37500000000006,335.99995386602336L503.89583333333337,335.9999539809927L511.41666666666663,335.99995394017674L518.9375,335.9999539743736L526.4583333333334,335.9999538743584L533.9791666666666,335.99995394103325L541.5,335.9999539827087L549.0208333333333,335.9999539743736L556.5416666666667,335.99995393350684L564.0625,335.9999539660385L571.5833333333333,335.9999538993608L579.1041666666667,335.999954007711L586.625,335.9999539827087L594.1458333333334,335.9999540577186L601.6666666666666,335.99995383268595L609.1875,335.99995409105895L616.7083333333334,335.99995388269355L624.2291666666666,335.9999539827087L631.75,335.99995389102565L639.2708333333334,335.9999540577186L646.7916666666666,335.99995389102565L654.3125,335.99995404938346L661.8333333333333,335.9999539410362L669.3541666666667,335.9999539910408L676.875,335.9999539660385L684.3958333333333,335.99995404105135L691.9166666666667,335.9999539160309L699.4375,335.9999538243509L706.9583333333334,335.99995409105895L714.4791666666666,335.9999539577034L722,335.9999540160461L729.5208333333334,335.99995388269053L737.0416666666666,335.99995393270115L744.5625,335.99995408272383L752.0833333333334,335.9999539160309L759.6041666666666,335.99995402438117L767.125,335.99995394103325L774.6458333333333,335.99995390769584L782.1666666666667,335.9999539910408L789.6875,335.9999539577034L797.2083333333333,335.9999539579063L804.7291666666667,335.999954007711L812.25,335.99995399937586L819.7708333333334,335.9999538160158" style="fill: none;" fill="none"></path></g></g></g></g></g></g><g transform="translate(50, 378)" clip-path="url(#clip_1)"><clipPath id="clip_1"><rect width="902" height="22"></rect></clipPath><g><g><line x1="0" y1="0" x2="0" y2="5" style="visibility: inherit;" fill="rgb(0, 0, 0)" stroke="rgb(204, 204, 204)" stroke-width="1px"></line><line x1="75.20833333333333" y1="0" x2="75.20833333333333" y2="5" style="visibility: inherit;" fill="rgb(0, 0, 0)" stroke="rgb(204, 204, 204)" stroke-width="1px"></line><line x1="150.41666666666666" y1="0" x2="150.41666666666666" y2="5" style="visibility: inherit;" fill="rgb(0, 0, 0)" stroke="rgb(204, 204, 204)" stroke-width="1px"></line><line x1="225.625" y1="0" x2="225.625" y2="5" style="visibility: inherit;" fill="rgb(0, 0, 0)" stroke="rgb(204, 204, 204)" stroke-width="1px"></line><line x1="300.8333333333333" y1="0" x2="300.8333333333333" y2="5" style="visibility: inherit;" fill="rgb(0, 0, 0)" stroke="rgb(204, 204, 204)" stroke-width="1px"></line><line x1="376.0416666666667" y1="0" x2="376.0416666666667" y2="5" style="visibility: inherit;" fill="rgb(0, 0, 0)" stroke="rgb(204, 204, 204)" stroke-width="1px"></line><line x1="451.25" y1="0" x2="451.25" y2="5" style="visibility: inherit;" fill="rgb(0, 0, 0)" stroke="rgb(204, 204, 204)" stroke-width="1px"></line><line x1="526.4583333333334" y1="0" x2="526.4583333333334" y2="5" style="visibility: inherit;" fill="rgb(0, 0, 0)" stroke="rgb(204, 204, 204)" stroke-width="1px"></line><line x1="601.6666666666666" y1="0" x2="601.6666666666666" y2="5" style="visibility: inherit;" fill="rgb(0, 0, 0)" stroke="rgb(204, 204, 204)" stroke-width="1px"></line><line x1="676.875" y1="0" x2="676.875" y2="5" style="visibility: inherit;" fill="rgb(0, 0, 0)" stroke="rgb(204, 204, 204)" stroke-width="1px"></line><line x1="752.0833333333334" y1="0" x2="752.0833333333334" y2="5" style="visibility: inherit;" fill="rgb(0, 0, 0)" stroke="rgb(204, 204, 204)" stroke-width="1px"></line><line x1="827.2916666666666" y1="0" x2="827.2916666666666" y2="5" style="visibility: inherit;" fill="rgb(0, 0, 0)" stroke="rgb(204, 204, 204)" stroke-width="1px"></line><line x1="902.5" y1="0" x2="902.5" y2="5" style="visibility: inherit;" fill="rgb(0, 0, 0)" stroke="rgb(204, 204, 204)" stroke-width="1px"></line></g><g transform="translate(0, 8)"><text x="0" y="0" dx="0em" dy="0.95em" style="text-anchor: middle; visibility: hidden; font-family: &quot;Helvetica Neue&quot;, sans-serif; font-size: 12px; font-weight: 200;" fill="rgb(50, 49, 63)" stroke="none" stroke-width="1px">-10</text><text x="75.20833333333333" y="0" dx="0em" dy="0.95em" style="text-anchor: middle; visibility: inherit; font-family: &quot;Helvetica Neue&quot;, sans-serif; font-size: 12px; font-weight: 200;" fill="rgb(50, 49, 63)" stroke="none" stroke-width="1px">0</text><text x="150.41666666666666" y="0" dx="0em" dy="0.95em" style="text-anchor: middle; visibility: inherit; font-family: &quot;Helvetica Neue&quot;, sans-serif; font-size: 12px; font-weight: 200;" fill="rgb(50, 49, 63)" stroke="none" stroke-width="1px">10</text><text x="225.625" y="0" dx="0em" dy="0.95em" style="text-anchor: middle; visibility: inherit; font-family: &quot;Helvetica Neue&quot;, sans-serif; font-size: 12px; font-weight: 200;" fill="rgb(50, 49, 63)" stroke="none" stroke-width="1px">20</text><text x="300.8333333333333" y="0" dx="0em" dy="0.95em" style="text-anchor: middle; visibility: inherit; font-family: &quot;Helvetica Neue&quot;, sans-serif; font-size: 12px; font-weight: 200;" fill="rgb(50, 49, 63)" stroke="none" stroke-width="1px">30</text><text x="376.0416666666667" y="0" dx="0em" dy="0.95em" style="text-anchor: middle; visibility: inherit; font-family: &quot;Helvetica Neue&quot;, sans-serif; font-size: 12px; font-weight: 200;" fill="rgb(50, 49, 63)" stroke="none" stroke-width="1px">40</text><text x="451.25" y="0" dx="0em" dy="0.95em" style="text-anchor: middle; visibility: inherit; font-family: &quot;Helvetica Neue&quot;, sans-serif; font-size: 12px; font-weight: 200;" fill="rgb(50, 49, 63)" stroke="none" stroke-width="1px">50</text><text x="526.4583333333334" y="0" dx="0em" dy="0.95em" style="text-anchor: middle; visibility: inherit; font-family: &quot;Helvetica Neue&quot;, sans-serif; font-size: 12px; font-weight: 200;" fill="rgb(50, 49, 63)" stroke="none" stroke-width="1px">60</text><text x="601.6666666666666" y="0" dx="0em" dy="0.95em" style="text-anchor: middle; visibility: inherit; font-family: &quot;Helvetica Neue&quot;, sans-serif; font-size: 12px; font-weight: 200;" fill="rgb(50, 49, 63)" stroke="none" stroke-width="1px">70</text><text x="676.875" y="0" dx="0em" dy="0.95em" style="text-anchor: middle; visibility: inherit; font-family: &quot;Helvetica Neue&quot;, sans-serif; font-size: 12px; font-weight: 200;" fill="rgb(50, 49, 63)" stroke="none" stroke-width="1px">80</text><text x="752.0833333333334" y="0" dx="0em" dy="0.95em" style="text-anchor: middle; visibility: inherit; font-family: &quot;Helvetica Neue&quot;, sans-serif; font-size: 12px; font-weight: 200;" fill="rgb(50, 49, 63)" stroke="none" stroke-width="1px">90</text><text x="827.2916666666666" y="0" dx="0em" dy="0.95em" style="text-anchor: middle; visibility: inherit; font-family: &quot;Helvetica Neue&quot;, sans-serif; font-size: 12px; font-weight: 200;" fill="rgb(50, 49, 63)" stroke="none" stroke-width="1px">100</text><text x="902.5" y="0" dx="0em" dy="0.95em" style="text-anchor: middle; visibility: hidden; font-family: &quot;Helvetica Neue&quot;, sans-serif; font-size: 12px; font-weight: 200;" fill="rgb(50, 49, 63)" stroke="none" stroke-width="1px">110</text></g><line x1="0" y1="0" x2="902.5" y2="0" fill="rgb(0, 0, 0)" stroke="rgb(204, 204, 204)" stroke-width="1px"></line></g></g></g></g></svg>