<svg viewBox="0 0 952.5 400" xmlns="http://www.w3.org/2000/svg"><g><g><g><g><g><line x1="50" y1="378" x2="45" y2="378" style="visibility: inherit;" fill="rgb(0, 0, 0)" stroke="rgb(204, 204, 204)" stroke-width="1px"></line><line x1="50" y1="343.6363636363637" x2="45" y2="343.6363636363637" style="visibility: inherit;" fill="rgb(0, 0, 0)" stroke="rgb(204, 204, 204)" stroke-width="1px"></line><line x1="50" y1="309.2727272727273" x2="45" y2="309.2727272727273" style="visibility: inherit;" fill="rgb(0, 0, 0)" stroke="rgb(204, 204, 204)" stroke-width="1px"></line><line x1="50" y1="274.909090909091" x2="45" y2="274.909090909091" style="visibility: inherit;" fill="rgb(0, 0, 0)" stroke="rgb(204, 204, 204)" stroke-width="1px"></line><line x1="50" y1="240.5454545454546" x2="45" y2="240.5454545454546" style="visibility: inherit;" fill="rgb(0, 0, 0)" stroke="rgb(204, 204, 204)" stroke-width="1px"></line><line x1="50" y1="206.1818181818182" x2="45" y2="206.1818181818182" style="visibility: inherit;" fill="rgb(0, 0, 0)" stroke="rgb(204, 204, 204)" stroke-width="1px"></line><line x1="50" y1="171.81818181818187" x2="45" y2="171.81818181818187" style="visibility: inherit;" fill="rgb(0, 0, 0)" stroke="rgb(204, 204, 204)" stroke-width="1px"></line><line x1="50" y1="137.4545454545455" x2="45" y2="137.4545454545455" style="visibility: inherit;" fill="rgb(0, 0, 0)" stroke="rgb(204, 204, 204)" stroke-width="1px"></line><line x1="50" y1="103.09090909090918" x2="45" y2="103.09090909090918" style="visibility: inherit;" fill="rgb(0, 0, 0)" stroke="rgb(204, 204, 204)" stroke-width="1px"></line><line x1="50" y1="68.7272727272728" x2="45" y2="68.7272727272728" style="visibility: inherit;" fill="rgb(0, 0, 0)" stroke="rgb(204, 204, 204)" stroke-width="1px"></line><line x1="50" y1="34.363636363636374" x2="45" y2="34.363636363636374" style="visibility: inherit;" fill="rgb(0, 0, 0)" stroke="rgb(204, 204, 204)" stroke-width="1px"></line><line x1="50" y1="0" x2="45" y2="0" style="visibility: inherit;" fill="rgb(0, 0, 0)" stroke="rgb(204, 204, 204)" stroke-width="1px"></line></g><g transform="translate(40, 0)"><text x="0" y="378" dx="0em" dy="0.3em" style="text-anchor: end; visibility: hidden; font-family: &quot;Helvetica Neue&quot;, sans-serif; font-size: 12px; font-weight: 200;" fill="rgb(50, 49, 63)" stroke="none" stroke-width="1px">0.55</text><text x="0" y="343.6363636363637" dx="0em" dy="0.3em" style="text-anchor: end; visibility: inherit; font-family: &quot;Helvetica Neue&quot;, sans-serif; font-size: 12px; font-weight: 200;" fill="rgb(50, 49, 63)" stroke="none" stroke-width="1px">0.6</text><text x="0" y="309.2727272727273" dx="0em" dy="0.3em" style="text-anchor: end; visibility: inherit; font-family: &quot;Helvetica Neue&quot;, sans-serif; font-size: 12px; font-weight: 200;" fill="rgb(50, 49, 63)" stroke="none" stroke-width="1px">0.65</text><text x="0" y="274.909090909091" dx="0em" dy="0.3em" style="text-anchor: end; visibility: inherit; font-family: &quot;Helvetica Neue&quot;, sans-serif; font-size: 12px; font-weight: 200;" fill="rgb(50, 49, 63)" stroke="none" stroke-width="1px">0.7</text><text x="0" y="240.5454545454546" dx="0em" dy="0.3em" style="text-anchor: end; visibility: inherit; font-family: &quot;Helvetica Neue&quot;, sans-serif; font-size: 12px; font-weight: 200;" fill="rgb(50, 49, 63)" stroke="none" stroke-width="1px">0.75</text><text x="0" y="206.1818181818182" dx="0em" dy="0.3em" style="text-anchor: end; visibility: inherit; font-family: &quot;Helvetica Neue&quot;, sans-serif; font-size: 12px; font-weight: 200;" fill="rgb(50, 49, 63)" stroke="none" stroke-width="1px">0.8</text><text x="0" y="171.81818181818187" dx="0em" dy="0.3em" style="text-anchor: end; visibility: inherit; font-family: &quot;Helvetica Neue&quot;, sans-serif; font-size: 12px; font-weight: 200;" fill="rgb(50, 49, 63)" stroke="none" stroke-width="1px">0.85</text><text x="0" y="137.4545454545455" dx="0em" dy="0.3em" style="text-anchor: end; visibility: inherit; font-family: &quot;Helvetica Neue&quot;, sans-serif; font-size: 12px; font-weight: 200;" fill="rgb(50, 49, 63)" stroke="none" stroke-width="1px">0.9</text><text x="0" y="103.09090909090918" dx="0em" dy="0.3em" style="text-anchor: end; visibility: inherit; font-family: &quot;Helvetica Neue&quot;, sans-serif; font-size: 12px; font-weight: 200;" fill="rgb(50, 49, 63)" stroke="none" stroke-width="1px">0.95</text><text x="0" y="68.7272727272728" dx="0em" dy="0.3em" style="text-anchor: end; visibility: inherit; font-family: &quot;Helvetica Neue&quot;, sans-serif; font-size: 12px; font-weight: 200;" fill="rgb(50, 49, 63)" stroke="none" stroke-width="1px">1</text><text x="0" y="34.363636363636374" dx="0em" dy="0.3em" style="text-anchor: end; visibility: inherit; font-family: &quot;Helvetica Neue&quot;, sans-serif; font-size: 12px; font-weight: 200;" fill="rgb(50, 49, 63)" stroke="none" stroke-width="1px">1.05</text><text x="0" y="0" dx="0em" dy="0.3em" style="text-anchor: end; visibility: hidden; font-family: &quot;Helvetica Neue&quot;, sans-serif; font-size: 12px; font-weight: 200;" fill="rgb(50, 49, 63)" stroke="none" stroke-width="1px">1.1</text></g><line x1="50" y1="0" x2="50" y2="378" fill="rgb(0, 0, 0)" stroke="rgb(204, 204, 204)" stroke-width="1px"></line></g></g><g transform="translate(50, 0)" clip-path="url(#clip_0)"><clipPath id="clip_0"><rect width="902" height="378"></rect></clipPath><g><g><g><line x1="0" y1="0" x2="0" y2="378" fill="rgb(0, 0, 0)" stroke="rgb(60, 60, 60)" stroke-width="1px" opacity="0.25"></line><line x1="75.20833333333333" y1="0" x2="75.20833333333333" y2="378" fill="rgb(0, 0, 0)" stroke="rgb(60, 60, 60)" stroke-width="1px" opacity="0.25"></line><line x1="150.41666666666666" y1="0" x2="150.41666666666666" y2="378" fill="rgb(0, 0, 0)" stroke="rgb(60, 60, 60)" stroke-width="1px" opacity="0.25"></line><line x1="225.625" y1="0" x2="225.625" y2="378" fill="rgb(0, 0, 0)" stroke="rgb(60, 60, 60)" stroke-width="1px" opacity="0.25"></line><line x1="300.8333333333333" y1="0" x2="300.8333333333333" y2="378" fill="rgb(0, 0, 0)" stroke="rgb(60, 60, 60)" stroke-width="1px" opacity="0.25"></line><line x1="376.0416666666667" y1="0" x2="376.0416666666667" y2="378" fill="rgb(0, 0, 0)" stroke="rgb(60, 60, 60)" stroke-width="1px" opacity="0.25"></line><line x1="451.25" y1="0" x2="451.25" y2="378" fill="rgb(0, 0, 0)" stroke="rgb(60, 60, 60)" stroke-width="1px" opacity="0.25"></line><line x1="526.4583333333334" y1="0" x2="526.4583333333334" y2="378" fill="rgb(0, 0, 0)" stroke="rgb(60, 60, 60)" stroke-width="1px" opacity="0.25"></line><line x1="601.6666666666666" y1="0" x2="601.6666666666666" y2="378" fill="rgb(0, 0, 0)" stroke="rgb(60, 60, 60)" stroke-width="1px" opacity="0.25"></line><line x1="676.875" y1="0" x2="676.875" y2="378" fill="rgb(0, 0, 0)" stroke="rgb(60, 60, 60)" stroke-width="1px" opacity="0.25"></line><line x1="752.0833333333334" y1="0" x2="752.0833333333334" y2="378" fill="rgb(0, 0, 0)" stroke="rgb(60, 60, 60)" stroke-width="1px" opacity="0.25"></line><line x1="827.2916666666666" y1="0" x2="827.2916666666666" y2="378" fill="rgb(0, 0, 0)" stroke="rgb(60, 60, 60)" stroke-width="1px" opacity="0.25"></line><line x1="902.5" y1="0" x2="902.5" y2="378" fill="rgb(0, 0, 0)" stroke="rgb(60, 60, 60)" stroke-width="1px" opacity="0.25"></line></g><g><line x1="0" y1="378" x2="902.5" y2="378" fill="rgb(0, 0, 0)" stroke="rgb(60, 60, 60)" stroke-width="1px" opacity="0.25"></line><line x1="0" y1="343.6363636363637" x2="902.5" y2="343.6363636363637" fill="rgb(0, 0, 0)" stroke="rgb(60, 60, 60)" stroke-width="1px" opacity="0.25"></line><line x1="0" y1="309.2727272727273" x2="902.5" y2="309.2727272727273" fill="rgb(0, 0, 0)" stroke="rgb(60, 60, 60)" stroke-width="1px" opacity="0.25"></line><line x1="0" y1="274.909090909091" x2="902.5" y2="274.909090909091" fill="rgb(0, 0, 0)" stroke="rgb(60, 60, 60)" stroke-width="1px" opacity="0.25"></line><line x1="0" y1="240.5454545454546" x2="902.5" y2="240.5454545454546" fill="rgb(0, 0, 0)" stroke="rgb(60, 60, 60)" stroke-width="1px" opacity="0.25"></line><line x1="0" y1="206.1818181818182" x2="902.5" y2="206.1818181818182" fill="rgb(0, 0, 0)" stroke="rgb(60, 60, 60)" stroke-width="1px" opacity="0.25"></line><line x1="0" y1="171.81818181818187" x2="902.5" y2="171.81818181818187" fill="rgb(0, 0, 0)" stroke="rgb(60, 60, 60)" stroke-width="1px" opacity="0.25"></line><line x1="0" y1="137.4545454545455" x2="902.5" y2="137.4545454545455" fill="rgb(0, 0, 0)" stroke="rgb(60, 60, 60)" stroke-width="1px" opacity="0.25"></line><line x1="0" y1="103.09090909090918" x2="902.5" y2="103.09090909090918" fill="rgb(0, 0, 0)" stroke="rgb(60, 60, 60)" stroke-width="1px" opacity="0.25"></line><line x1="0" y1="68.7272727272728" x2="902.5" y2="68.7272727272728" fill="rgb(0, 0, 0)" stroke="rgb(60, 60, 60)" stroke-width="1px" opacity="0.25"></line><line x1="0" y1="34.363636363636374" x2="902.5" y2="34.363636363636374" fill="rgb(0, 0, 0)" stroke="rgb(60, 60, 60)" stroke-width="1px" opacity="0.25"></line><line x1="0" y1="0" x2="902.5" y2="0" fill="rgb(0, 0, 0)" stroke="rgb(60, 60, 60)" stroke-width="1px" opacity="0.25"></line></g></g></g><g><g><line x1="0" y1="756" x2="902.5" y2="756" fill="rgb(0, 0, 0)" stroke="rgb(153, 153, 153)" stroke-width="1.5px"></line></g></g><g><g><line x1="75.20833333333333" y1="0" x2="75.20833333333333" y2="378" fill="rgb(0, 0, 0)" stroke="rgb(153, 153, 153)" stroke-width="1.5px"></line></g></g><g><g><g><g><g><path stroke="rgb(0, 119, 187)" stroke-width="2px" d="M75.20833333333333,291.1209809563377L82.72916666666666,157.47631970318886L90.25,127.65663762526083L97.77083333333334,104.93690716136592L105.29166666666667,93.57700096477168" style="fill: none;" fill="none"></path></g><g><path stroke="rgb(0, 153, 136)" stroke-width="2px" d="M75.20833333333333,237.77419619126758L82.72916666666666,124.81668155843568L90.25,106.35686471245509L97.77083333333334,99.2569540630688L105.29166666666667,87.18708957325333L112.8125,77.95718115026307L120.33333333333333,76.53718263452708L127.85416666666666,70.85727050087672L135.375,72.27722805196595L142.89583333333331,68.7272727272728L150.41666666666666,77.24718189239508L157.9375,68.7272727272728L165.45833333333331,68.7272727272728L172.97916666666669,74.40722582556992L180.5,68.7272727272728L188.02083333333334,68.7272727272728L195.54166666666669,70.85727050087672L203.0625,68.7272727272728L210.58333333333334,68.7272727272728L218.10416666666666,70.14727124300879L225.625,68.7272727272728L233.14583333333334,68.7272727272728L240.66666666666666,68.7272727272728L248.18750000000003,68.7272727272728L255.70833333333331,68.7272727272728L263.2291666666667,68.7272727272728L270.75,68.7272727272728L278.27083333333337,75.11722508343786L285.79166666666663,68.7272727272728L293.3125,68.7272727272728L300.8333333333333,68.7272727272728L308.3541666666667,68.7272727272728L315.875,68.7272727272728L323.3958333333333,68.7272727272728L330.91666666666663,68.7272727272728L338.4375,68.7272727272728L345.95833333333337,68.7272727272728L353.4791666666667,68.7272727272728L361,68.7272727272728L368.5208333333333,68.7272727272728L376.0416666666667,68.7272727272728L383.5625,68.7272727272728L391.08333333333337,68.7272727272728L398.60416666666663,68.7272727272728L406.125,68.7272727272728L413.6458333333333,68.7272727272728L421.1666666666667,68.7272727272728L428.6875,68.7272727272728L436.2083333333333,68.7272727272728L443.72916666666663,68.7272727272728" style="fill: none;" fill="none"></path></g><g><path stroke="rgb(238, 51, 119)" stroke-width="2px" d="M75.20833333333333,256.4802105643533L82.72916666666666,139.7265021150763L90.25,117.00677165118134L97.77083333333334,99.2569540630688L105.29166666666667,85.05709179964936L112.8125,85.76709105751735L120.33333333333333,77.24718189239508L127.85416666666666,73.69722656770188L135.375,71.56722879409796L142.89583333333331,69.43727198514074L150.41666666666666,71.56722879409796L157.9375,68.7272727272728L165.45833333333331,70.85727050087672L172.97916666666669,68.7272727272728L180.5,76.53718263452708L188.02083333333334,68.7272727272728L195.54166666666669,68.7272727272728L203.0625,68.7272727272728L210.58333333333334,72.27722805196595L218.10416666666666,68.7272727272728" style="fill: none;" fill="none"></path></g><g><path style="fill: none;" stroke="rgb(255, 112, 67)" stroke-width="2px" d="M75.20833333333333,300.82038519599223Z" fill="none"></path></g><g><path stroke="rgb(51, 187, 238)" stroke-width="2px" d="M75.20833333333333,250.93769385597926L82.72916666666666,137.59654530611908L90.25,107.77686322819108L97.77083333333334,89.31704638221055L105.29166666666667,86.47709031538534L112.8125,83.63713424856019L120.33333333333333,74.40722582556992L127.85416666666666,70.85727050087672L135.375,72.98722730983394L142.89583333333331,70.85727050087672L150.41666666666666,70.85727050087672L157.9375,70.14727124300879L165.45833333333331,70.14727124300879L172.97916666666669,68.7272727272728L180.5,68.7272727272728" style="fill: none;" fill="none"></path></g><g><path stroke="rgb(204, 51, 17)" stroke-width="2px" d="M75.20833333333333,262.0227272727273L82.72916666666666,159.6063174767928L90.25,113.4568163264882L97.77083333333334,104.93690716136592L105.29166666666667,90.02704564007848L112.8125,78.66718040813106L120.33333333333333,80.08713795922023L127.85416666666666,76.53718263452708L135.375,74.40722582556992L142.89583333333331,80.08713795922023" style="fill: none;" fill="none"></path></g><g><path stroke="rgb(187, 187, 187)" stroke-width="2px" d="M75.20833333333333,275.87901904366237L82.72916666666666,148.24641128019857L90.25,115.58677313544541L97.77083333333334,96.4169979962436L105.29166666666667,87.18708957325333L112.8125,81.50713647495621L120.33333333333333,77.95718115026307L127.85416666666666,73.69722656770188L135.375,75.8271833766591L142.89583333333331,70.85727050087672L150.41666666666666,74.40722582556992L157.9375,70.14727124300879L165.45833333333331,70.14727124300879L172.97916666666669,70.14727124300879L180.5,72.27722805196595L188.02083333333334,69.43727198514074L195.54166666666669,68.7272727272728L203.0625,68.7272727272728L210.58333333333334,72.27722805196595L218.10416666666666,68.7272727272728L225.625,68.7272727272728L233.14583333333334,68.7272727272728L240.66666666666666,68.7272727272728L248.18750000000003,72.98722730983394L255.70833333333331,68.7272727272728L263.2291666666667,68.7272727272728L270.75,68.7272727272728L278.27083333333337,68.7272727272728L285.79166666666663,72.27722805196595L293.3125,68.7272727272728L300.8333333333333,68.7272727272728L308.3541666666667,68.7272727272728L315.875,68.7272727272728L323.3958333333333,68.7272727272728L330.91666666666663,68.7272727272728L338.4375,68.7272727272728L345.95833333333337,72.98722730983394L353.4791666666667,68.7272727272728L361,68.7272727272728L368.5208333333333,68.7272727272728L376.0416666666667,68.7272727272728L383.5625,68.7272727272728L391.08333333333337,68.7272727272728L398.60416666666663,68.7272727272728L406.125,72.98722730983394L413.6458333333333,68.7272727272728L421.1666666666667,68.7272727272728L428.6875,68.7272727272728L436.2083333333333,68.7272727272728L443.72916666666663,68.7272727272728L451.25,68.7272727272728L458.7708333333333,68.7272727272728L466.2916666666667,68.7272727272728L473.8125,68.7272727272728L481.3333333333333,68.7272727272728L488.85416666666663,68.7272727272728L496.37500000000006,68.7272727272728L503.89583333333337,68.7272727272728L511.41666666666663,68.7272727272728L518.9375,68.7272727272728L526.4583333333334,68.7272727272728L533.9791666666666,68.7272727272728L541.5,68.7272727272728L549.0208333333333,68.7272727272728L556.5416666666667,68.7272727272728L564.0625,68.7272727272728L571.5833333333333,68.7272727272728L579.1041666666667,68.7272727272728L586.625,68.7272727272728L594.1458333333334,68.7272727272728L601.6666666666666,68.7272727272728L609.1875,68.7272727272728L616.7083333333334,68.7272727272728L624.2291666666666,68.7272727272728L631.75,68.7272727272728L639.2708333333334,68.7272727272728L646.7916666666666,68.7272727272728L654.3125,68.7272727272728L661.8333333333333,68.7272727272728L669.3541666666667,68.7272727272728L676.875,68.7272727272728L684.3958333333333,68.7272727272728L691.9166666666667,68.7272727272728L699.4375,68.7272727272728L706.9583333333334,68.7272727272728L714.4791666666666,68.7272727272728L722,68.7272727272728L729.5208333333334,68.7272727272728L737.0416666666666,68.7272727272728L744.5625,68.7272727272728L752.0833333333334,68.7272727272728L759.6041666666666,68.7272727272728L767.125,68.7272727272728L774.6458333333333,68.7272727272728L782.1666666666667,68.7272727272728L789.6875,68.7272727272728L797.2083333333333,68.7272727272728L804.7291666666667,68.7272727272728L812.25,68.7272727272728L819.7708333333334,68.7272727272728" style="fill: none;" fill="none"></path></g></g></g></g></g></g><g transform="translate(50, 378)" clip-path="url(#clip_1)"><clipPath id="clip_1"><rect width="902" height="22"></rect></clipPath><g><g><line x1="0" y1="0" x2="0" y2="5" style="visibility: inherit;" fill="rgb(0, 0, 0)" stroke="rgb(204, 204, 204)" stroke-width="1px"></line><line x1="75.20833333333333" y1="0" x2="75.20833333333333" y2="5" style="visibility: inherit;" fill="rgb(0, 0, 0)" stroke="rgb(204, 204, 204)" stroke-width="1px"></line><line x1="150.41666666666666" y1="0" x2="150.41666666666666" y2="5" style="visibility: inherit;" fill="rgb(0, 0, 0)" stroke="rgb(204, 204, 204)" stroke-width="1px"></line><line x1="225.625" y1="0" x2="225.625" y2="5" style="visibility: inherit;" fill="rgb(0, 0, 0)" stroke="rgb(204, 204, 204)" stroke-width="1px"></line><line x1="300.8333333333333" y1="0" x2="300.8333333333333" y2="5" style="visibility: inherit;" fill="rgb(0, 0, 0)" stroke="rgb(204, 204, 204)" stroke-width="1px"></line><line x1="376.0416666666667" y1="0" x2="376.0416666666667" y2="5" style="visibility: inherit;" fill="rgb(0, 0, 0)" stroke="rgb(204, 204, 204)" stroke-width="1px"></line><line x1="451.25" y1="0" x2="451.25" y2="5" style="visibility: inherit;" fill="rgb(0, 0, 0)" stroke="rgb(204, 204, 204)" stroke-width="1px"></line><line x1="526.4583333333334" y1="0" x2="526.4583333333334" y2="5" style="visibility: inherit;" fill="rgb(0, 0, 0)" stroke="rgb(204, 204, 204)" stroke-width="1px"></line><line x1="601.6666666666666" y1="0" x2="601.6666666666666" y2="5" style="visibility: inherit;" fill="rgb(0, 0, 0)" stroke="rgb(204, 204, 204)" stroke-width="1px"></line><line x1="676.875" y1="0" x2="676.875" y2="5" style="visibility: inherit;" fill="rgb(0, 0, 0)" stroke="rgb(204, 204, 204)" stroke-width="1px"></line><line x1="752.0833333333334" y1="0" x2="752.0833333333334" y2="5" style="visibility: inherit;" fill="rgb(0, 0, 0)" stroke="rgb(204, 204, 204)" stroke-width="1px"></line><line x1="827.2916666666666" y1="0" x2="827.2916666666666" y2="5" style="visibility: inherit;" fill="rgb(0, 0, 0)" stroke="rgb(204, 204, 204)" stroke-width="1px"></line><line x1="902.5" y1="0" x2="902.5" y2="5" style="visibility: inherit;" fill="rgb(0, 0, 0)" stroke="rgb(204, 204, 204)" stroke-width="1px"></line></g><g transform="translate(0, 8)"><text x="0" y="0" dx="0em" dy="0.95em" style="text-anchor: middle; visibility: hidden; font-family: &quot;Helvetica Neue&quot;, sans-serif; font-size: 12px; font-weight: 200;" fill="rgb(50, 49, 63)" stroke="none" stroke-width="1px">-10</text><text x="75.20833333333333" y="0" dx="0em" dy="0.95em" style="text-anchor: middle; visibility: inherit; font-family: &quot;Helvetica Neue&quot;, sans-serif; font-size: 12px; font-weight: 200;" fill="rgb(50, 49, 63)" stroke="none" stroke-width="1px">0</text><text x="150.41666666666666" y="0" dx="0em" dy="0.95em" style="text-anchor: middle; visibility: inherit; font-family: &quot;Helvetica Neue&quot;, sans-serif; font-size: 12px; font-weight: 200;" fill="rgb(50, 49, 63)" stroke="none" stroke-width="1px">10</text><text x="225.625" y="0" dx="0em" dy="0.95em" style="text-anchor: middle; visibility: inherit; font-family: &quot;Helvetica Neue&quot;, sans-serif; font-size: 12px; font-weight: 200;" fill="rgb(50, 49, 63)" stroke="none" stroke-width="1px">20</text><text x="300.8333333333333" y="0" dx="0em" dy="0.95em" style="text-anchor: middle; visibility: inherit; font-family: &quot;Helvetica Neue&quot;, sans-serif; font-size: 12px; font-weight: 200;" fill="rgb(50, 49, 63)" stroke="none" stroke-width="1px">30</text><text x="376.0416666666667" y="0" dx="0em" dy="0.95em" style="text-anchor: middle; visibility: inherit; font-family: &quot;Helvetica Neue&quot;, sans-serif; font-size: 12px; font-weight: 200;" fill="rgb(50, 49, 63)" stroke="none" stroke-width="1px">40</text><text x="451.25" y="0" dx="0em" dy="0.95em" style="text-anchor: middle; visibility: inherit; font-family: &quot;Helvetica Neue&quot;, sans-serif; font-size: 12px; font-weight: 200;" fill="rgb(50, 49, 63)" stroke="none" stroke-width="1px">50</text><text x="526.4583333333334" y="0" dx="0em" dy="0.95em" style="text-anchor: middle; visibility: inherit; font-family: &quot;Helvetica Neue&quot;, sans-serif; font-size: 12px; font-weight: 200;" fill="rgb(50, 49, 63)" stroke="none" stroke-width="1px">60</text><text x="601.6666666666666" y="0" dx="0em" dy="0.95em" style="text-anchor: middle; visibility: inherit; font-family: &quot;Helvetica Neue&quot;, sans-serif; font-size: 12px; font-weight: 200;" fill="rgb(50, 49, 63)" stroke="none" stroke-width="1px">70</text><text x="676.875" y="0" dx="0em" dy="0.95em" style="text-anchor: middle; visibility: inherit; font-family: &quot;Helvetica Neue&quot;, sans-serif; font-size: 12px; font-weight: 200;" fill="rgb(50, 49, 63)" stroke="none" stroke-width="1px">80</text><text x="752.0833333333334" y="0" dx="0em" dy="0.95em" style="text-anchor: middle; visibility: inherit; font-family: &quot;Helvetica Neue&quot;, sans-serif; font-size: 12px; font-weight: 200;" fill="rgb(50, 49, 63)" stroke="none" stroke-width="1px">90</text><text x="827.2916666666666" y="0" dx="0em" dy="0.95em" style="text-anchor: middle; visibility: inherit; font-family: &quot;Helvetica Neue&quot;, sans-serif; font-size: 12px; font-weight: 200;" fill="rgb(50, 49, 63)" stroke="none" stroke-width="1px">100</text><text x="902.5" y="0" dx="0em" dy="0.95em" style="text-anchor: middle; visibility: hidden; font-family: &quot;Helvetica Neue&quot;, sans-serif; font-size: 12px; font-weight: 200;" fill="rgb(50, 49, 63)" stroke="none" stroke-width="1px">110</text></g><line x1="0" y1="0" x2="902.5" y2="0" fill="rgb(0, 0, 0)" stroke="rgb(204, 204, 204)" stroke-width="1px"></line></g></g></g></g></svg>